<?xml version="1.0" encoding="UTF-8"?>
<svg version="1.1" xmlns="http://www.w3.org/2000/svg" width="710" height="710">
<path d="M0 0 C2.02891279 -0.0059998 4.05782333 -0.01280862 6.08673096 -0.02035522 C11.54271145 -0.03785784 16.99862904 -0.0427034 22.4546349 -0.0439868 C25.86914603 -0.04541598 29.28364152 -0.04969961 32.69814873 -0.05498123 C44.62478515 -0.07341716 56.55137714 -0.08165844 68.47802734 -0.08007812 C79.57718309 -0.07887291 90.67614561 -0.10006607 101.7752524 -0.13156545 C111.33148899 -0.15771566 120.88766229 -0.16844621 130.44393438 -0.16716731 C136.14045289 -0.16665806 141.83679865 -0.17232351 147.53328133 -0.19352341 C152.88099483 -0.21288885 158.22837013 -0.21304179 163.57609558 -0.19849014 C165.53523694 -0.19640008 167.49439943 -0.20111469 169.45350456 -0.21321106 C172.13236841 -0.22867901 174.81006757 -0.21934608 177.48890686 -0.20394897 C178.25943439 -0.2142361 179.02996192 -0.22452323 179.82383877 -0.23512208 C185.91305466 -0.15803254 191.13245401 1.53863698 195.72697788 5.66701376 C200.82717087 11.35740364 201.49201167 17.27614569 201.44903564 24.63555908 C201.45215563 25.46103013 201.45527561 26.28650117 201.45849013 27.13698649 C201.46644979 29.89559678 201.46015411 32.65398584 201.45385742 35.41259766 C201.45656843 37.39410531 201.46012999 39.37561196 201.46447754 41.3571167 C201.47359778 46.73798879 201.47005686 52.11878419 201.46371937 57.49965763 C201.45864904 63.14469163 201.46335449 68.78971915 201.4664917 74.43475342 C201.47013191 83.9273801 201.46533454 93.41997569 201.45581055 102.91259766 C201.44496351 113.8493791 201.44842398 124.78608576 201.45946336 135.72286534 C201.46857974 145.13466121 201.46979922 154.54643473 201.46458602 163.95823359 C201.46148528 169.5691047 201.46100359 175.17994084 201.467659 180.79080963 C201.47349396 186.0800597 201.46932464 191.36921493 201.45787048 196.6584549 C201.45525482 198.58596643 201.45593507 200.51348612 201.46039581 202.44099426 C201.54865279 244.50043732 190.59137281 281.18513542 161.19506836 312.29052734 C160.39842773 313.16322266 159.60178711 314.03591797 158.78100586 314.93505859 C133.66261521 341.45734721 97.19024021 355.34658437 61.06471157 356.3496809 C55.18050524 356.45152599 49.29580747 356.4484007 43.41088867 356.45166016 C41.4433025 356.4562979 39.47571721 356.46132382 37.50813293 356.46670532 C32.20061681 356.47972905 26.89311326 356.48625312 21.58558369 356.49071598 C18.26489662 356.4936597 14.94421289 356.49776661 11.62352753 356.50222015 C1.21874327 356.51586131 -9.18603322 356.52554754 -19.5908258 356.52942204 C-31.57654239 356.53391112 -43.56214542 356.55151252 -55.54782748 356.58042264 C-64.8356292 356.60204457 -74.12339894 356.61212641 -83.41122556 356.61346316 C-88.94963801 356.61450972 -94.48794321 356.62038742 -100.02632904 356.63828278 C-105.23030514 356.65477489 -110.43409338 356.65691339 -115.63808632 356.64814377 C-117.54358995 356.64737433 -119.44910376 356.65170378 -121.35458183 356.66160202 C-123.96307073 356.67435471 -126.57089725 356.6684272 -129.17938232 356.65802002 C-130.29987854 356.67010463 -130.29987854 356.67010463 -131.44301105 356.68243337 C-137.61026625 356.6251974 -143.92705463 355.47940986 -148.92602539 351.67724609 C-149.57764648 350.83613281 -149.57764648 350.83613281 -150.24243164 349.97802734 C-150.69489258 349.42501953 -151.14735352 348.87201172 -151.61352539 348.30224609 C-154.71540673 343.06464318 -155.09370742 337.90766996 -155.05889893 331.95222473 C-155.06201891 331.12745925 -155.06513889 330.30269377 -155.06835341 329.4529354 C-155.07631308 326.69665903 -155.07001737 323.94060408 -155.0637207 321.18432617 C-155.06643174 319.20444103 -155.0699933 317.2245569 -155.07434082 315.24467468 C-155.08346142 309.86786753 -155.07991984 304.49113712 -155.07358265 299.11432862 C-155.06851179 293.47243181 -155.07321798 287.83054148 -155.07635498 282.18864441 C-155.07999533 272.70021389 -155.07519775 263.21181447 -155.06567383 253.72338867 C-155.05482991 242.79457962 -155.0582849 231.86584543 -155.06932664 220.93703824 C-155.0784464 211.53032224 -155.07966078 202.12362859 -155.0744493 192.71690959 C-155.07134999 187.109919 -155.07086278 181.50296338 -155.07752228 175.89597511 C-155.08336209 170.60918427 -155.07917937 165.32248823 -155.06773376 160.03570747 C-155.06512049 158.11022854 -155.06579408 156.18474143 -155.07025909 154.2592659 C-155.1026953 138.83110097 -154.94627403 122.79601747 -150.67993164 107.85302734 C-150.36233887 106.70398926 -150.36233887 106.70398926 -150.03833008 105.53173828 C-141.41653942 75.61618615 -124.6994625 49.31304316 -99.80493164 30.29052734 C-98.95415039 29.62408203 -98.10336914 28.95763672 -97.22680664 28.27099609 C-82.38434673 17.00583565 -65.93598449 9.21390705 -47.92993164 4.54052734 C-47.17679687 4.34168945 -46.42366211 4.14285156 -45.64770508 3.93798828 C-30.62640384 0.27532888 -15.37040344 -0.00919534 0 0 Z M-40.80493164 79.29052734 C-41.72145508 80.06009766 -41.72145508 80.06009766 -42.65649414 80.84521484 C-45.34718772 83.20435377 -46.70852997 84.81815916 -47.42993164 88.35302734 C-46.50328944 94.1908732 -44.68883655 99.69768465 -42.80493164 105.29052734 C-41.6790515 104.33322818 -40.55426015 103.37464839 -39.42993164 102.41552734 C-38.49020508 101.61501953 -38.49020508 101.61501953 -37.53149414 100.79833984 C-36.24656513 99.67620727 -35.01121189 98.49680759 -33.80493164 97.29052734 C-33.89774414 96.07365234 -33.99055664 94.85677734 -34.08618164 93.60302734 C-34.17908068 89.93351521 -33.45751054 88.34699068 -30.96118164 85.66552734 C-29.76231685 84.51935991 -28.54274233 83.39452066 -27.30493164 82.29052734 C-26.68489258 81.70658203 -26.06485352 81.12263672 -25.42602539 80.52099609 C-23.90321704 79.09189903 -22.35635228 77.68851078 -20.80493164 76.29052734 C-21.71279949 73.88887446 -21.71279949 73.88887446 -25.11743164 73.16552734 C-33.15150398 71.2591373 -35.2844034 74.06611939 -40.80493164 79.29052734 Z M-25.87670898 98.63598633 C-26.6403476 99.36772568 -27.40398621 100.09946503 -28.19076538 100.8533783 C-28.99929962 101.65634842 -29.80783386 102.45931854 -30.64086914 103.28662109 C-31.47961578 104.10872574 -32.31836243 104.93083038 -33.18252563 105.77784729 C-34.95240594 107.52240764 -36.71554762 109.27382685 -38.47241211 111.03149414 C-41.16504164 113.71319776 -43.89501386 116.35241244 -46.62915039 118.99169922 C-48.34383444 120.69171116 -50.0561558 122.39411016 -51.76586914 124.09912109 C-52.58654877 124.88387314 -53.40722839 125.66862518 -54.2527771 126.47715759 C-58.32157159 130.46146123 -58.32157159 130.46146123 -60.11940002 135.67037964 C-59.89023526 137.98474988 -59.44825234 140.05853556 -58.80493164 142.29052734 C-58.60665771 143.26795898 -58.40838379 144.24539062 -58.20410156 145.25244141 C-57.47970241 148.01885803 -56.74566002 150.78180504 -55.99243164 153.54052734 C-55.74428711 154.50732422 -55.49614258 155.47412109 -55.24047852 156.47021484 C-53.3828364 163.65687082 -53.3828364 163.65687082 -48.80493164 169.29052734 C-45.7724315 170.5967204 -42.69853281 171.3990112 -39.49243164 172.16552734 C-38.66291992 172.38982422 -37.8334082 172.61412109 -36.97875977 172.84521484 C-31.86237975 174.13743395 -27.99828342 174.79441812 -22.80493164 173.29052734 C-19.28613352 170.66418424 -16.26627666 167.59234783 -13.18774414 164.47021484 C-12.2899826 163.57819366 -11.39222107 162.68617249 -10.46725464 161.76712036 C-8.57524345 159.87918789 -6.69044264 157.98638273 -4.81469727 156.08251953 C-2.41731331 153.65094973 0.00601153 151.24732179 2.43841362 148.85084343 C4.76518075 146.55104992 7.06888186 144.22842766 9.37475586 141.90771484 C10.24446014 141.05015594 11.11416443 140.19259705 12.01022339 139.30905151 C16.68685811 134.54496507 16.68685811 134.54496507 19.30688477 128.51269531 C19.13591832 123.58602464 18.03216199 119.26623572 16.69506836 114.54052734 C16.46303711 113.59564453 16.23100586 112.65076172 15.99194336 111.67724609 C14.45402407 106.07762143 14.45402407 106.07762143 10.20288086 102.34912109 C8.8787854 101.9541355 7.54018236 101.60661395 6.19506836 101.29052734 C5.32398438 101.0364209 4.45290039 100.78231445 3.55541992 100.52050781 C0.57229753 99.66093853 -2.42320552 98.87569491 -5.42993164 98.10302734 C-6.45344727 97.83039063 -7.47696289 97.55775391 -8.53149414 97.27685547 C-9.52149414 97.0196875 -10.51149414 96.76251953 -11.53149414 96.49755859 C-12.42433105 96.26528564 -13.31716797 96.0330127 -14.23706055 95.79370117 C-19.44949565 94.77232555 -21.97783344 94.84852152 -25.87670898 98.63598633 Z M66.19506836 102.29052734 C64.52947238 103.79878414 62.91044474 105.35946869 61.33178711 106.95849609 C60.44555664 107.85117188 59.55932617 108.74384766 58.64624023 109.66357422 C57.73422852 110.59234375 56.8222168 111.52111328 55.88256836 112.47802734 C54.94227956 113.42835885 54.00152865 114.37823334 53.06030273 115.32763672 C50.76730877 117.64414857 48.47912184 119.96520535 46.19506836 122.29052734 C47.09937252 124.66749019 47.09937252 124.66749019 50.38256836 125.47802734 C54.41249953 126.33686513 56.28917764 126.49868485 60.19506836 125.29052734 C62.47287113 123.24393984 64.35356618 120.88207781 66.32006836 118.54052734 C71.90316419 112.36312288 71.90316419 112.36312288 76.60131836 112.09912109 C79.63353817 112.92709374 82.33671829 113.99746422 85.19506836 115.29052734 C86.18506836 115.29052734 87.17506836 115.29052734 88.19506836 115.29052734 C88.34975586 116.93021484 88.34975586 116.93021484 88.50756836 118.60302734 C88.96523512 122.16265771 89.65452052 125.6166579 90.50756836 129.10302734 C90.84208008 130.47394531 90.84208008 130.47394531 91.18334961 131.87255859 C92.40307179 134.78764751 93.46768264 135.73479931 96.19506836 137.29052734 C98.53762773 138.06367222 98.53762773 138.06367222 100.94506836 138.47802734 C102.14389648 138.71585938 102.14389648 138.71585938 103.36694336 138.95849609 C103.97022461 139.06806641 104.57350586 139.17763672 105.19506836 139.29052734 C104.13069906 132.22120888 102.55384046 125.28349589 100.82006836 118.35302734 C100.62324463 117.52440186 100.4264209 116.69577637 100.22363281 115.84204102 C100.02084717 115.05289307 99.81806152 114.26374512 99.60913086 113.45068359 C99.34543701 112.39312866 99.34543701 112.39312866 99.07641602 111.31420898 C97.51203578 107.7222013 95.29221699 105.75500812 91.70898438 104.23803711 C88.72984394 103.42190284 85.75023589 102.61833489 82.75756836 101.85302734 C81.72051758 101.55976563 80.6834668 101.26650391 79.61499023 100.96435547 C78.61145508 100.70203125 77.60791992 100.43970703 76.57397461 100.16943359 C75.66204346 99.92781494 74.7501123 99.68619629 73.81054688 99.43725586 C70.31496348 99.2411534 68.9769318 100.2088084 66.19506836 102.29052734 Z M-76.17993164 113.97802734 C-76.71231445 114.50847656 -77.24469727 115.03892578 -77.79321289 115.58544922 C-80.75260711 118.65403228 -82.69931127 120.95305095 -82.80493164 125.29052734 C-82.30025898 127.76269284 -82.30025898 127.76269284 -81.36743164 130.10302734 C-81.0799707 130.89322266 -80.79250977 131.68341797 -80.49633789 132.49755859 C-80.26817383 133.08923828 -80.04000977 133.68091797 -79.80493164 134.29052734 C-76.04771981 131.14673785 -72.61126044 128.08538896 -69.36743164 124.41552734 C-67.61743164 122.60693359 -67.61743164 122.60693359 -65.80493164 121.29052734 C-63.82503378 121.32195429 -61.83927994 121.35616755 -59.87133789 121.57568359 C-55.43190421 120.96305853 -52.55000483 116.56125284 -49.80493164 113.29052734 C-50.64770536 111.02130925 -50.64770536 111.02130925 -53.28149414 110.43896484 C-54.32047852 110.18373047 -55.35946289 109.92849609 -56.42993164 109.66552734 C-57.45344727 109.40513672 -58.47696289 109.14474609 -59.53149414 108.87646484 C-67.53492101 107.44387053 -70.78793178 108.15603256 -76.17993164 113.97802734 Z M27.75634766 139.95288086 C27.24989212 140.44882248 26.74343658 140.9447641 26.22163391 141.45573425 C24.55546159 143.09554919 22.91214383 144.75628424 21.26928711 146.41943359 C20.11528089 147.56939638 18.96038539 148.71846737 17.80464172 149.86668396 C15.38673134 152.27575303 12.97999309 154.69532754 10.58056641 157.12280273 C7.50948642 160.22802954 4.41230502 163.30558838 1.30620098 166.37573338 C-1.08365552 168.74386639 -3.45898452 171.12615807 -5.83022118 173.51292229 C-6.96647413 174.65316812 -8.10717465 175.78900025 -9.25240517 176.92022896 C-10.85433301 178.50685125 -12.43566408 180.11156708 -14.01318359 181.72241211 C-14.91664017 182.63064224 -15.82009674 183.53887238 -16.75093079 184.47462463 C-19.26137283 187.91627878 -19.67796379 190.05244037 -19.80493164 194.29052734 C-19.31235573 197.70174841 -19.31235573 197.70174841 -18.3137207 201.17211914 C-18.14312134 201.82020538 -17.97252197 202.46829163 -17.79675293 203.13601685 C-17.23450057 205.2576945 -16.65312256 207.37356425 -16.07055664 209.48974609 C-15.67183458 210.97206958 -15.27404242 212.45464349 -14.87713623 213.93745422 C-14.04477561 217.03544907 -13.20325753 220.13075865 -12.35473633 223.22436523 C-11.26897682 227.18469749 -10.20322286 231.15007607 -9.14386368 235.11754131 C-8.32542414 238.176048 -7.49803836 241.23207667 -6.66777802 244.28739357 C-6.27149523 245.74875184 -5.8776164 247.21076424 -5.48621368 248.67343712 C-4.93753761 250.71719486 -4.37727319 252.75742085 -3.8137207 254.79711914 C-3.49759827 255.95737106 -3.18147583 257.11762299 -2.85577393 258.31303406 C-1.80366692 261.29411084 -1.06532689 263.09302183 1.19506836 265.29052734 C4.1257163 266.54483323 4.1257163 266.54483323 7.59082031 267.38110352 C8.23510986 267.5556456 8.87939941 267.73018768 9.54321289 267.91001892 C11.66971512 268.48221111 13.80114452 269.03297229 15.93334961 269.58349609 C17.41716973 269.97772656 18.90066092 270.37319701 20.38383484 270.76985168 C24.28910665 271.81031098 28.19899093 272.83231097 32.10998535 273.85101318 C35.2925865 274.68332472 38.47163045 275.52875084 41.65057087 276.37491894 C45.45197123 277.38646247 49.25494095 278.39203343 53.05834961 279.39599609 C53.77969904 279.58658285 54.50104847 279.77716961 55.24425697 279.97353172 C57.29906718 280.51490572 59.35488885 281.05223547 61.41113281 281.58813477 C62.57900833 281.8936174 63.74688385 282.19910004 64.95014954 282.51383972 C70.81654737 284.31734047 70.81654737 284.31734047 76.39038086 283.03271484 C77.02717773 282.41654297 77.66397461 281.80037109 78.32006836 281.16552734 C79.3274707 280.19099609 79.3274707 280.19099609 80.35522461 279.19677734 C80.96237305 278.56771484 81.56952148 277.93865234 82.19506836 277.29052734 C83.04069336 276.42427734 83.88631836 275.55802734 84.75756836 274.66552734 C86.44874888 272.36911301 86.44874888 272.36911301 86.07006836 269.60302734 C85.31962954 267.14101669 85.31962954 267.14101669 83.19506836 265.29052734 C79.82654321 265.23401644 79.82654321 265.23401644 76.19506836 266.29052734 C75.4090625 267.19697998 74.62305664 268.10343262 73.81323242 269.03735352 C71.46667215 271.05793182 70.4999531 271.30963757 67.35803223 271.11270142 C63.70686052 270.31730066 60.13578665 269.33590265 56.55444336 268.27880859 C55.22335679 267.91017736 53.89149172 267.54434671 52.55889893 267.18119812 C49.0599347 266.21997727 45.57231941 265.22262179 42.0859375 264.21685791 C38.53176305 263.19780407 34.96877983 262.21065435 31.40600586 261.22216797 C27.40606044 260.11178629 23.40725337 258.99850538 19.41571045 257.85823059 C18.23398254 257.5217601 17.05225464 257.18528961 15.8347168 256.83862305 C14.79136169 256.53930374 13.74800659 256.23998444 12.67303467 255.93159485 C10.29895077 255.20704026 10.29895077 255.20704026 8.19506836 255.29052734 C8.0863591 254.70229691 7.97764984 254.11406647 7.86564636 253.50801086 C6.58723306 246.83453443 4.92757794 240.31883952 3.12084961 233.77099609 C2.5299021 231.59338452 1.93942079 229.4156464 1.34936523 227.23779297 C0.42578725 223.84164011 -0.5011143 220.44651592 -1.43603516 217.0534668 C-2.34356253 213.75356147 -3.23739198 210.45019219 -4.12915039 207.14599609 C-4.4123967 206.13135788 -4.69564301 205.11671967 -4.98747253 204.07133484 C-5.24136246 203.12297256 -5.49525238 202.17461029 -5.75683594 201.19750977 C-5.98396774 200.36829514 -6.21109955 199.53908051 -6.44511414 198.68473816 C-6.87359691 195.83363145 -6.70399663 194.03467578 -5.80493164 191.29052734 C-4.10606384 189.05007935 -4.10606384 189.05007935 -1.87109375 186.75976562 C-1.03609848 185.89602325 -0.20110321 185.03228088 0.65919495 184.1423645 C1.56950974 183.22446136 2.47982452 182.30655823 3.41772461 181.36083984 C4.36142326 180.40173845 5.30489624 179.44241496 6.24815369 178.48287964 C8.22574026 176.47686905 10.21164618 174.4795191 12.20263672 172.48681641 C14.74821484 169.93605235 17.26253503 167.35670453 19.77031803 164.76884651 C21.70849344 162.77860925 23.66677233 160.80911942 25.63116264 158.84478378 C27.02090357 157.44531365 28.3898289 156.02527133 29.75831604 154.60501099 C36.08715696 148.36648806 36.08715696 148.36648806 41.07641602 148.02441406 C42.46241302 148.40116194 43.83498045 148.82891328 45.19506836 149.29052734 C47.07218223 149.75510507 48.95028569 150.21569384 50.82910156 150.67333984 C52.96952209 151.24849898 55.10837206 151.82952578 57.24584961 152.41552734 C58.38160934 152.72248535 59.51736908 153.02944336 60.68754578 153.34570312 C64.29561061 154.32226385 67.90156289 155.30639286 71.50756836 156.29052734 C73.95079884 156.95246161 76.39415697 157.61392493 78.83764648 158.27490234 C83.29518286 159.48309592 87.75254786 160.69188412 92.20800781 161.90771484 C93.10099075 162.15118652 93.99397369 162.3946582 94.91401672 162.64550781 C96.68822363 163.1472054 98.44590869 163.70747412 100.19506836 164.29052734 C101.17671204 166.66169739 101.17671204 166.66169739 102.03613281 169.84838867 C102.36269363 171.03664749 102.68925446 172.22490631 103.02571106 173.44917297 C103.37062071 174.75678458 103.71481622 176.06458474 104.05834961 177.37255859 C104.4168744 178.70695068 104.77611146 180.04115158 105.1360321 181.37516785 C105.88818011 184.17494591 106.63085733 186.97702777 107.3671875 189.78100586 C108.31165502 193.3740866 109.2803143 196.96011079 110.2563448 200.54472828 C111.00349748 203.30011215 111.73709997 206.05896519 112.4667263 208.81903648 C112.81848624 210.14266335 113.17458667 211.46514458 113.53508949 212.78641701 C114.03751986 214.63541042 114.51971475 216.48986657 115.00097656 218.34448242 C115.28060745 219.39847733 115.56023834 220.45247223 115.8483429 221.53840637 C116.23919856 224.64080922 115.92462085 225.7398139 114.19506836 228.29052734 C113.49381836 229.09490234 112.79256836 229.89927734 112.07006836 230.72802734 C110.02015718 233.12647016 110.02015718 233.12647016 109.75756836 235.91552734 C110.0540091 238.30379644 110.0540091 238.30379644 111.32006836 240.16552734 C113.23444104 241.55363486 113.23444104 241.55363486 116.01147461 241.12646484 C119.77679366 240.13777984 121.3130127 238.81311954 124.00756836 236.04052734 C124.77713867 235.27224609 125.54670898 234.50396484 126.33959961 233.71240234 C128.42712626 230.98763072 128.83855908 229.67364663 129.19506836 226.29052734 C128.69037274 223.04804647 128.69037274 223.04804647 127.71972656 219.56005859 C127.55073349 218.90411713 127.38174042 218.24817566 127.20762634 217.57235718 C126.64798925 215.41288212 126.0725701 213.2579977 125.49584961 211.10302734 C125.09985132 209.5977292 124.70444905 208.09227415 124.30961609 206.58666992 C123.48016623 203.43425315 122.64274495 200.28408922 121.79980469 197.13525391 C120.72245408 193.10776551 119.66624608 189.0750841 118.61613178 185.04042053 C117.80404642 181.93072807 116.98016255 178.82425443 116.15279198 175.71859741 C115.75872968 174.2332992 115.36844631 172.7469929 114.98208046 171.25967407 C114.43920528 169.17668955 113.88039977 167.09861335 113.31738281 165.02099609 C113.00348099 163.83916748 112.68957916 162.65733887 112.36616516 161.43969727 C111.07148189 157.95819377 109.85852733 155.88175668 107.19506836 153.29052734 C104.13502362 151.90312283 104.13502362 151.90312283 100.59399414 151.07055664 C99.93980499 150.89426224 99.28561584 150.71796783 98.61160278 150.53633118 C96.45883061 149.96115076 94.30024644 149.41263063 92.14038086 148.86474609 C90.6355272 148.4697255 89.13104557 148.07328515 87.62692261 147.67549133 C84.47749607 146.84662006 81.32523764 146.03001252 78.17016602 145.22290039 C74.13497969 144.19036204 70.10610092 143.13542115 66.07890511 142.07219219 C62.97322383 141.25351074 59.86548115 140.44291366 56.75695419 139.63511086 C55.27105827 139.248741 53.78557051 138.86079775 52.30051041 138.47122765 C50.22052183 137.92772259 48.138226 137.39419811 46.05493164 136.86352539 C44.28099533 136.40649483 44.28099533 136.40649483 42.47122192 135.94023132 C35.54703294 134.56707434 32.86575847 134.8703481 27.75634766 139.95288086 Z M44.14501953 167.74365234 C42.96941719 168.87613403 42.96941719 168.87613403 41.77006531 170.03149414 C40.934496 170.8594751 40.0989267 171.68745605 39.23803711 172.54052734 C38.37567947 173.38719971 37.51332184 174.23387207 36.62483215 175.10620117 C34.80311294 176.90326504 32.98689884 178.70592396 31.17578125 180.51367188 C28.39837741 183.27481088 25.58827447 185.99945006 22.77514648 188.72412109 C21.01065216 190.47328262 19.2482117 192.22451895 17.48803711 193.97802734 C16.64234665 194.78981445 15.79665619 195.60160156 14.92533875 196.43798828 C10.82556448 200.37821312 10.82556448 200.37821312 8.83926392 205.5078125 C9.20262994 209.12404289 10.53068744 212.11651658 12.19506836 215.29052734 C18.05476914 210.42102463 23.45833066 205.18826606 28.84741211 199.80615234 C29.74754532 198.90934753 30.64767853 198.01254272 31.5750885 197.08856201 C33.46479491 195.20389498 35.35334803 193.31814687 37.24023438 191.43066406 C39.66185427 189.00894164 42.09033686 186.59422553 44.52054501 184.18112564 C46.84230259 181.87310834 49.15692206 179.55795483 51.47241211 177.24365234 C52.34727768 176.37597229 53.22214325 175.50829224 54.1235199 174.61431885 C54.92177689 173.81298523 55.72003387 173.01165161 56.54248047 172.18603516 C57.24972763 171.48021301 57.95697479 170.77439087 58.68565369 170.04718018 C60.41230665 168.423717 60.41230665 168.423717 60.19506836 166.29052734 C58.95756836 165.96052734 57.72006836 165.63052734 56.44506836 165.29052734 C55.74897461 165.10490234 55.05288086 164.91927734 54.33569336 164.72802734 C49.4179963 163.72295057 47.59775273 164.38271229 44.14501953 167.74365234 Z M78.91687012 175.55285645 C77.76081928 176.66145435 76.6262557 177.7927248 75.50952148 178.94091797 C74.88266449 179.55375641 74.2558075 180.16659485 73.60995483 180.79800415 C71.54483419 182.8279334 69.51033488 184.88571624 67.47631836 186.94677734 C66.05019992 188.36750675 64.6228957 189.78704679 63.19445801 191.20544434 C60.20587933 194.18222883 57.23224798 197.17300211 54.26831055 200.17431641 C50.46735402 204.0208543 46.63160762 207.8303565 42.78394318 211.63010406 C39.83034272 214.55479879 36.89605976 217.49827834 33.9672699 220.44779968 C32.56012692 221.86028017 31.1470145 223.26683955 29.72792053 224.66731262 C27.74708895 226.62782738 25.7937136 228.61215992 23.84545898 230.60498047 C22.95889114 231.46725754 22.95889114 231.46725754 22.05441284 232.34695435 C20.21635292 234.17495965 20.21635292 234.17495965 18.19506836 237.29052734 C18.18756602 241.11125615 18.18756602 241.11125615 19.19506836 244.29052734 C21.50506836 244.95052734 23.81506836 245.61052734 26.19506836 246.29052734 C47.64506836 224.84052734 69.09506836 203.39052734 91.19506836 181.29052734 C90.53506836 178.98052734 89.87506836 176.67052734 89.19506836 174.29052734 C84.60794117 173.02079659 82.91786683 172.79171431 78.91687012 175.55285645 Z M-36.67993164 205.03271484 C-37.16445801 205.51628448 -37.64898437 205.99985413 -38.14819336 206.49807739 C-39.17497819 207.52418018 -40.20049509 208.55155304 -41.22485352 209.58007812 C-42.79471978 211.15528077 -44.36981974 212.72510614 -45.94555664 214.29443359 C-46.940669 215.29020696 -47.93547101 216.2862906 -48.92993164 217.28271484 C-49.84000977 218.1939209 -50.75008789 219.10512695 -51.68774414 220.04394531 C-54.23716393 222.68208957 -54.23716393 222.68208957 -54.85961914 226.11083984 C-54.41226615 231.84862819 -53.16710852 237.22276025 -51.55493164 242.72802734 C-51.3627002 243.42621582 -51.17046875 244.1244043 -50.97241211 244.84375 C-50.00097407 247.98277127 -49.29231479 249.93824489 -46.58984375 251.89160156 C-43.64453417 253.3710987 -40.88461557 254.27307616 -37.69946289 255.11474609 C-35.97759766 255.57397461 -35.97759766 255.57397461 -34.22094727 256.04248047 C-33.03178711 256.35121094 -31.84262695 256.65994141 -30.61743164 256.97802734 C-29.41666992 257.29835938 -28.2159082 257.61869141 -26.97875977 257.94873047 C-21.46499375 259.60384455 -21.46499375 259.60384455 -15.80493164 260.29052734 C-16.06113848 258.68395975 -16.33549035 257.08027904 -16.61743164 255.47802734 C-16.76825195 254.58470703 -16.91907227 253.69138672 -17.07446289 252.77099609 C-17.8939022 249.98840805 -18.59508317 249.1099577 -20.80493164 247.29052734 C-22.76497505 246.59490564 -22.76497505 246.59490564 -24.92993164 246.25537109 C-37.80463616 243.57149646 -37.80463616 243.57149646 -40.65649414 239.91943359 C-41.43844825 237.26157948 -41.77899593 235.05700353 -41.80493164 232.29052734 C-42.00022461 231.08009766 -42.00022461 231.08009766 -42.19946289 229.84521484 C-41.50283052 225.33434783 -37.45880382 222.80138517 -34.15844727 219.92724609 C-31.15602875 217.15854878 -29.92689403 215.75957436 -28.86743164 211.68505859 C-28.81396949 208.78139529 -28.92034271 206.60944317 -29.74243164 203.85302734 C-30.09305664 202.67740234 -30.44368164 201.50177734 -30.80493164 200.29052734 C-32.97282512 200.29052734 -35.31753306 203.67200479 -36.67993164 205.03271484 Z M94.25254822 205.11279297 C93.40205399 205.96550781 92.55155975 206.81822266 91.67529297 207.69677734 C91.20697556 208.16494873 90.73865814 208.63312012 90.25614929 209.11547852 C88.70085648 210.67147085 87.14914054 212.23098101 85.59741211 213.79052734 C84.52288704 214.86691645 83.44814172 215.94308574 82.3731842 217.01904297 C79.53838845 219.85766501 76.70660787 222.69927681 73.87542725 225.54150391 C70.98833313 228.43880977 68.09842178 231.3333025 65.20874023 234.22802734 C59.53474205 239.91276481 53.86392344 245.60066115 48.19506836 251.29052734 C52.1178748 253.90573164 55.39876279 255.52466756 60.19506836 255.29052734 C64.01883637 253.19064092 66.87822658 250.24432049 69.92944336 247.15771484 C70.81166565 246.29550323 71.69388794 245.43329163 72.60284424 244.54495239 C74.93385252 242.24533929 77.23498431 239.91982957 79.53039551 237.58483887 C81.87255016 235.23500436 84.28386085 232.95677278 86.67944336 230.66162109 C88.47531271 228.87286184 90.26712471 227.08001794 92.05444336 225.28271484 C92.9166449 224.46342499 93.77884644 223.64413513 94.66717529 222.80001831 C97.01846315 220.34404542 98.76412403 218.37890719 100.19506836 215.29052734 C99.97018087 210.9542496 98.85126501 207.2862184 97.19506836 203.29052734 C95.87271135 203.17649876 95.87271135 203.17649876 94.25254822 205.11279297 Z M91.56616211 242.82177734 C90.92807617 243.47146484 90.28999023 244.12115234 89.63256836 244.79052734 C88.9919043 245.44021484 88.35124023 246.08990234 87.69116211 246.75927734 C87.19745117 247.26458984 86.70374023 247.76990234 86.19506836 248.29052734 C87.1309734 249.39604624 88.06886694 250.49988188 89.00756836 251.60302734 C89.52963867 252.21791016 90.05170898 252.83279297 90.58959961 253.46630859 C93.68341294 257.32338579 93.68341294 257.32338579 98.25756836 258.60302734 C101.31568664 258.58880046 101.31568664 258.58880046 103.19506836 256.29052734 C103.73245837 253.41245033 103.73245837 253.41245033 103.19506836 250.29052734 C101.30978323 247.64513673 101.30978323 247.64513673 98.75756836 245.41552734 C97.52200195 244.24376953 97.52200195 244.24376953 96.26147461 243.04833984 C93.82180796 240.74025848 93.82180796 240.74025848 91.56616211 242.82177734 Z " fill="#FEBB15" transform="translate(331.804931640625,58.70947265625)"/>
<path d="M0 0 C0.80182205 -0.00807175 1.6036441 -0.01614349 2.42976379 -0.02445984 C4.13031858 -0.03830328 5.83090118 -0.04902428 7.53149414 -0.05688477 C10.11724591 -0.07403775 12.70169884 -0.11791221 15.28710938 -0.16210938 C16.94139687 -0.1722419 18.59569522 -0.18075625 20.25 -0.1875 C21.01692673 -0.20500809 21.78385345 -0.22251617 22.57402039 -0.24055481 C28.15306479 -0.21831137 31.35489962 1.05786987 35.95703125 4.23828125 C39.89562474 8.79875792 40.55583082 12.42087504 40.95703125 18.23828125 C36.99703125 18.23828125 33.03703125 18.23828125 28.95703125 18.23828125 C28.29703125 16.91828125 27.63703125 15.59828125 26.95703125 14.23828125 C22.72788281 12.12370703 17.17803319 13.05242297 12.52587891 13.05297852 C10.46495998 13.05078967 8.40457435 13.03262142 6.34375 13.01367188 C5.05082031 13.01173828 3.75789063 13.00980469 2.42578125 13.0078125 C1.23404297 13.00370361 0.04230469 12.99959473 -1.18554688 12.99536133 C-4.17471384 12.94024793 -4.17471384 12.94024793 -6.04296875 15.23828125 C-6.37630208 17.73828125 -6.37630208 17.73828125 -6.04296875 20.23828125 C-3.24681748 23.03443252 -1.47792065 22.49221126 2.43359375 22.51171875 C4.40005859 22.54265625 4.40005859 22.54265625 6.40625 22.57421875 C8.48623525 22.59668396 10.56589569 22.61323544 12.64599609 22.61914062 C29.36559516 22.69911957 29.36559516 22.69911957 36.015625 29.2734375 C36.47066406 29.94246094 36.92570312 30.61148438 37.39453125 31.30078125 C37.86761719 31.97238281 38.34070313 32.64398437 38.828125 33.3359375 C41.62260564 38.04497582 41.40112282 42.93340562 40.95703125 48.23828125 C38.85153379 54.99803626 35.55292285 58.57322415 29.65625 62.35546875 C23.70107619 65.25465345 17.44226582 64.78092888 10.95703125 64.67578125 C9.10851562 64.68641602 9.10851562 64.68641602 7.22265625 64.69726562 C-0.51534044 64.64329891 -6.91484255 64.35235555 -13.28515625 59.546875 C-17.86734571 54.29599282 -19.1788393 50.15131684 -20.04296875 43.23828125 C-15.75296875 43.23828125 -11.46296875 43.23828125 -7.04296875 43.23828125 C-6.38296875 44.88828125 -5.72296875 46.53828125 -5.04296875 48.23828125 C-0.59079151 52.27609744 4.72364258 51.68382444 10.39453125 51.61328125 C11.78768555 51.63068359 11.78768555 51.63068359 13.20898438 51.6484375 C18.47301548 51.62595765 22.5028642 51.36921361 26.95703125 48.23828125 C28.11902549 44.47888813 28.56717241 42.39754945 26.70703125 38.86328125 C23.37357398 35.76792807 19.86584682 36.09291464 15.53125 36.02734375 C13.62375977 35.98480469 13.62375977 35.98480469 11.67773438 35.94140625 C9.00058866 35.88671083 6.3240293 35.84521869 3.64648438 35.80859375 C2.37095703 35.77765625 1.09542969 35.74671875 -0.21875 35.71484375 C-1.38317627 35.69502441 -2.54760254 35.67520508 -3.74731445 35.65478516 C-8.96671203 34.99515909 -12.14233168 33.15938735 -15.79296875 29.42578125 C-19.60683537 24.02280354 -20.51501156 19.86898441 -19.58203125 13.4140625 C-18.20334602 7.84936921 -14.57436053 4.45795436 -10.04296875 1.23828125 C-6.88121176 -0.34259724 -3.47393199 0.03302461 0 0 Z " fill="#FDBB15" transform="translate(108.04296875,531.76171875)"/>
<path d="M0 0 C8.49529895 5.75981269 14.12564638 12.35363625 16.953125 22.32421875 C17.90398086 30.93720378 16.834734 38.54683429 12.953125 46.32421875 C12.293125 46.98421875 11.633125 47.64421875 10.953125 48.32421875 C13.923125 48.81921875 13.923125 48.81921875 16.953125 49.32421875 C16.953125 53.28421875 16.953125 57.24421875 16.953125 61.32421875 C11.88522914 61.42406363 6.81792199 61.49614135 1.74926758 61.54394531 C0.02976491 61.56390023 -1.68967133 61.59107433 -3.40893555 61.62597656 C-16.96538581 61.89403083 -28.67660679 61.15116995 -39.046875 51.32421875 C-45.57972023 44.22849129 -47.69637483 35.8744444 -47.3828125 26.37109375 C-46.26976466 16.27600873 -41.71082358 8.90007587 -34.046875 2.32421875 C-24.67659077 -4.25870245 -10.23766904 -5.56819786 0 0 Z M-31.85546875 18.54296875 C-35.06499195 23.34146901 -35.39143279 27.51849399 -34.5859375 33.08203125 C-33.20030831 38.84544541 -30.10085366 43.17952092 -25.046875 46.32421875 C-19.48664551 49.03388224 -15.11165319 49.83379823 -9.1171875 48.12109375 C-2.76887982 45.67759419 1.30992326 41.68886992 4.265625 35.63671875 C5.49625065 29.7073406 5.02197994 24.42234141 2.265625 19.01171875 C-2.64194661 13.30832472 -7.1898199 9.70360122 -14.859375 8.94921875 C-22.17847791 9.18354031 -27.45866685 12.88822625 -31.85546875 18.54296875 Z " fill="#FCBA15" transform="translate(320.046875,534.67578125)"/>
<path d="M0 0 C4.45107906 1.11276977 6.97962282 3.11032586 10.4375 5.9375 C11.68196059 6.9327058 12.92676068 7.9274872 14.171875 8.921875 C14.80416016 9.43041016 15.43644531 9.93894531 16.08789062 10.46289062 C19.1067466 12.88969313 22.13924026 15.29775844 25.1875 17.6875 C25.72753662 18.12118896 26.26757324 18.55487793 26.82397461 19.00170898 C30.00963116 21.53151505 30.00963116 21.53151505 34 22 C35.90281961 20.83409676 35.90281961 20.83409676 37.84375 19.21875 C38.59076172 18.62723145 39.33777344 18.03571289 40.10742188 17.42626953 C40.89697266 16.79060059 41.68652344 16.15493164 42.5 15.5 C44.12407616 14.21497737 45.74907447 12.93111933 47.375 11.6484375 C48.16519531 11.02291992 48.95539063 10.39740234 49.76953125 9.75292969 C52.64516521 7.49296342 55.55531416 5.29435632 58.5 3.125 C59.3353125 2.50882813 60.170625 1.89265625 61.03125 1.2578125 C63 0 63 0 65 0 C65 21.12 65 42.24 65 64 C60.71 64 56.42 64 52 64 C51.67 51.46 51.34 38.92 51 26 C45.57430941 30.30947022 45.57430941 30.30947022 40.17089844 34.64672852 C39.4905957 35.17709717 38.81029297 35.70746582 38.109375 36.25390625 C37.41811523 36.80377197 36.72685547 37.3536377 36.01464844 37.92016602 C34 39 34 39 31.98632812 38.84179688 C29.74790709 37.89316416 28.0396838 36.75620936 26.109375 35.27734375 C25.46967773 34.79257568 24.82998047 34.30780762 24.17089844 33.80834961 C23.37200195 33.19096924 22.57310547 32.57358887 21.75 31.9375 C17.91375 28.9984375 17.91375 28.9984375 14 26 C13.67 38.54 13.34 51.08 13 64 C8.71 64 4.42 64 0 64 C0 42.88 0 21.76 0 0 Z " fill="#FCBA14" transform="translate(430,532)"/>
<path d="M0 0 C3.96 0 7.92 0 12 0 C12 7.59 12 15.18 12 23 C24.87 23 37.74 23 51 23 C51 15.41 51 7.82 51 0 C55.29 0 59.58 0 64 0 C64 21.12 64 42.24 64 64 C59.71 64 55.42 64 51 64 C51 54.43 51 44.86 51 35 C38.13 35 25.26 35 12 35 C12 44.57 12 54.14 12 64 C8.04 64 4.08 64 0 64 C0 42.88 0 21.76 0 0 Z " fill="#FBBA15" transform="translate(587,532)"/>
<path d="M0 0 C7.98348738 4.78162937 13.11386999 11.03161979 16.5234375 19.63671875 C18.57922221 30.66320036 16.87289612 40.24200218 10.5859375 49.63671875 C5.5669045 55.82474171 -1.9970166 59.93278198 -9.7890625 61.32421875 C-19.55024125 62.23570403 -28.29966448 60.33258986 -35.97265625 54.0546875 C-43.48487487 46.89788567 -46.897607 39.72297155 -47.1640625 29.38671875 C-46.82508326 17.59777394 -43.34609061 11.48427133 -34.7890625 3.32421875 C-25.40517764 -4.62423167 -10.88463954 -5.15302703 0 0 Z M-30.7890625 16.32421875 C-34.18295151 21.93633588 -35.61555943 26.8155554 -34.7890625 33.32421875 C-32.84822735 39.39937729 -29.31164635 44.08865913 -23.7890625 47.32421875 C-17.81401607 49.64894708 -12.76495134 49.7862447 -6.82421875 47.35546875 C-0.55376002 44.17811538 2.27744784 40.35620226 4.5859375 33.8828125 C5.81406332 28.85517241 4.8344671 25.0562454 3.0859375 20.19921875 C-0.18393623 15.18541236 -4.8505589 10.77263426 -10.7890625 9.32421875 C-18.6307077 8.69182801 -25.14363546 10.5262126 -30.7890625 16.32421875 Z " fill="#FCBA15" transform="translate(398.7890625,534.67578125)"/>
<path d="M0 0 C1.31828351 0.20016004 2.63731265 0.39546894 3.95703125 0.5859375 C8.02744893 1.41899158 11.25485463 2.20143318 15 4 C17.78873219 8.23861169 18.31539045 12.45815578 17.69717407 17.44058228 C16.90541642 20.34722875 15.96352253 21.56273056 13.87646484 23.70458984 C12.88941055 24.72992325 12.88941055 24.72992325 11.88241577 25.77597046 C11.16582794 26.49700958 10.44924011 27.21804871 9.7109375 27.9609375 C8.97428864 28.71089996 8.23763977 29.46086243 7.47866821 30.23355103 C5.91865977 31.81379176 4.35319348 33.38866044 2.78271484 34.95849609 C0.38338191 37.36658749 -1.9821595 39.8048145 -4.34765625 42.24609375 C-5.86782443 43.77799635 -7.3898985 45.30801049 -8.9140625 46.8359375 C-9.61850494 47.56912201 -10.32294739 48.30230652 -11.04873657 49.05770874 C-16.07897617 53.99650168 -16.07897617 53.99650168 -20.72802734 54.01416016 C-22.34765381 53.51215088 -22.34765381 53.51215088 -24 53 C-24.80308594 52.82339844 -25.60617187 52.64679688 -26.43359375 52.46484375 C-28.2890625 51.9765625 -30.14453125 51.48828125 -32 51 C-32.87214608 47.94233206 -33.71945858 44.87830844 -34.5625 41.8125 C-34.80935547 40.94818359 -35.05621094 40.08386719 -35.31054688 39.19335938 C-35.53935547 38.35224609 -35.76816406 37.51113281 -36.00390625 36.64453125 C-36.21861572 35.87471924 -36.4333252 35.10490723 -36.65454102 34.31176758 C-37.17571544 30.82413461 -37.02959366 28.3931242 -34.8747406 25.47743225 C-33.32289449 23.70920796 -31.71136279 22.0258733 -30.05859375 20.3515625 C-29.15694237 19.42638321 -29.15694237 19.42638321 -28.23707581 18.48251343 C-26.96383027 17.18467729 -25.68503243 15.89226813 -24.40112305 14.60498047 C-22.44527521 12.63283998 -20.5267194 10.6287395 -18.60742188 8.62109375 C-17.3641221 7.36246289 -16.11874463 6.10588034 -14.87109375 4.8515625 C-14.30305527 4.24962067 -13.73501678 3.64767883 -13.14976501 3.02749634 C-8.59584815 -1.42637744 -6.15298311 -1.45424131 0 0 Z " fill="#FDBB15" transform="translate(321,167)"/>
<path d="M0 0 C0.66 0 1.32 0 2 0 C2.27038086 0.54298233 2.54076172 1.08596466 2.81933594 1.645401 C5.67276509 7.37464515 8.52917632 13.10239571 11.38720703 18.8293457 C12.44882148 20.95755644 13.50971324 23.08612785 14.56982422 25.21508789 C16.10707738 28.30193288 17.64655505 31.38765264 19.1875 34.47265625 C19.93676758 35.97356308 19.93676758 35.97356308 20.70117188 37.50479126 C24.21299699 44.508994 27.86631593 51.41858458 31.671875 58.26733398 C33 61 33 61 33 64 C28.71 64 24.42 64 20 64 C13.44952272 52.10373091 6.92395007 40.22336176 1 28 C-5.69898759 39.83161482 -12.02358982 51.78733571 -18 64 C-22.62 64 -27.24 64 -32 64 C-30.59808792 59.79426376 -29.26941124 56.29126427 -27.3125 52.39453125 C-26.78350098 51.3377417 -26.25450195 50.28095215 -25.70947266 49.19213867 C-25.14534668 48.07685791 -24.5812207 46.96157715 -24 45.8125 C-23.41911621 44.65790283 -22.83823242 43.50330566 -22.23974609 42.3137207 C-15.05899593 28.08527023 -7.59623139 14.01026782 0 0 Z " fill="#FCBA15" transform="translate(540,532)"/>
<path d="M0 0 C21.12 0 42.24 0 64 0 C64 3.96 64 7.92 64 12 C55.42 12 46.84 12 38 12 C38 29.16 38 46.32 38 64 C34.04 64 30.08 64 26 64 C26 46.84 26 29.68 26 12 C17.42 12 8.84 12 0 12 C0 8.04 0 4.08 0 0 Z " fill="#FEBB15" transform="translate(163,532)"/>
<path d="M0 0 C4.29 0 8.58 0 13 0 C13.02255425 8.1969097 13.04091696 16.39379545 13.05181217 24.59072781 C13.0570402 28.39651577 13.06413638 32.20228148 13.07543945 36.00805664 C13.0862712 39.67792544 13.09227744 43.34777278 13.09487724 47.01765633 C13.09673097 48.42074992 13.1003506 49.82384229 13.10573006 51.2269268 C13.11294419 53.1856968 13.11340809 55.1444882 13.11352539 57.10327148 C13.115746 58.22023911 13.11796661 59.33720673 13.12025452 60.48802185 C13 63 13 63 12 64 C8.04 64 4.08 64 0 64 C0 42.88 0 21.76 0 0 Z " fill="#EBAD14" transform="translate(59,532)"/>
<path d="M0 0 C3.96 0 7.92 0 12 0 C12 21.12 12 42.24 12 64 C8.04 64 4.08 64 0 64 C0 42.88 0 21.76 0 0 Z " fill="#FEBB15" transform="translate(244,532)"/>
<path d="M0 0 C3.031875 -0.061875 6.06375 -0.12375 9.1875 -0.1875 C10.60712036 -0.22846802 10.60712036 -0.22846802 12.05541992 -0.27026367 C16.88172477 -0.31790685 20.06658483 -0.12939042 24 3 C25 4 25 4 25.3125 7.8125 C25.29463537 11.12936552 25.17180376 11.7852453 23 14.5 C22.34 14.995 21.68 15.49 21 16 C21.90046376 18.83002896 22.76474505 21.54255983 24.125 24.1875 C25 26 25 26 25 29 C23.02 29 21.04 29 19 29 C18.64808594 28.22914063 18.29617188 27.45828125 17.93359375 26.6640625 C15.3995135 20.98339703 15.3995135 20.98339703 11.04296875 16.82421875 C8.94846105 16.2104874 8.94846105 16.2104874 6 16 C6 20.29 6 24.58 6 29 C4.02 29 2.04 29 0 29 C0 19.43 0 9.86 0 0 Z M6 6 C6 7.32 6 8.64 6 10 C10.29 10 14.58 10 19 10 C19 9.01 19 8.02 19 7 C17.91447634 5.68737429 17.91447634 5.68737429 15.27734375 5.90234375 C14.17519531 5.91394531 13.07304687 5.92554688 11.9375 5.9375 C10.83277344 5.94652344 9.72804688 5.95554687 8.58984375 5.96484375 C7.73519531 5.97644531 6.88054687 5.98804688 6 6 Z " fill="#FCBA15" transform="translate(430,622)"/>
<path d="M0 0 C18.01916933 -0.45047923 18.01916933 -0.45047923 24 3 C27.58286091 6.8584656 28.79472391 10.60659951 29.16796875 15.75390625 C28.81520333 20.47111824 26.4068827 23.72101573 22.9375 26.875 C19.82358231 28.68308124 17.2959425 29.12266626 13.76953125 29.09765625 C13.04612549 29.09515869 12.32271973 29.09266113 11.57739258 29.09008789 C10.66497803 29.08098389 9.75256348 29.07187988 8.8125 29.0625 C5.904375 29.041875 2.99625 29.02125 0 29 C0 19.43 0 9.86 0 0 Z M6 6 C6 11.61 6 17.22 6 23 C13.34428882 23.5522879 13.34428882 23.5522879 20.125 21.375 C22.44450558 18.4369596 23 16.7418377 23 13 C21.77874129 10.17182193 20.82874713 8.5259008 18.21484375 6.8671875 C15.57993757 5.83553111 13.57007911 5.80078739 10.75 5.875 C8.39875 5.936875 8.39875 5.936875 6 6 Z " fill="#FAB914" transform="translate(274,622)"/>
<path d="M0 0 C1.65 0 3.3 0 5 0 C6 1 6 1 6.11352539 3.68383789 C6.10828857 4.85164795 6.10305176 6.01945801 6.09765625 7.22265625 C6.09443359 8.48271484 6.09121094 9.74277344 6.08789062 11.04101562 C6.07953403 12.38151109 6.07106907 13.72200588 6.0625 15.0625 C6.0574866 16.40689942 6.05292342 17.7513006 6.04882812 19.09570312 C6.03699488 22.39717941 6.02050971 25.69856803 6 29 C3.15522568 27.66406279 0.71427041 26.15164738 -1.78515625 24.25 C-2.48060547 23.7240625 -3.17605469 23.198125 -3.89257812 22.65625 C-4.60865234 22.1096875 -5.32472656 21.563125 -6.0625 21 C-7.49037357 19.91599213 -8.91873993 18.83263298 -10.34765625 17.75 C-11.29137085 17.03070312 -11.29137085 17.03070312 -12.25415039 16.296875 C-13.80041925 15.1482552 -15.3972986 14.0684676 -17 13 C-17 18.28 -17 23.56 -17 29 C-18.98 29 -20.96 29 -23 29 C-23 19.76 -23 10.52 -23 1 C-19.10046048 2.55981581 -16.95025623 3.58071652 -13.79296875 6.0390625 C-12.66665039 6.90917969 -12.66665039 6.90917969 -11.51757812 7.796875 C-10.74865234 8.40015625 -9.97972656 9.0034375 -9.1875 9.625 C-8.39923828 10.23601563 -7.61097656 10.84703125 -6.79882812 11.4765625 C-4.86185024 12.97918777 -2.930375 14.48890159 -1 16 C-0.67 10.72 -0.34 5.44 0 0 Z " fill="#FABA13" transform="translate(485,622)"/>
<path d="M0 0 C9 6 9 6 12 9 C16.46696218 8.88906551 18.93529161 6.75103242 22.25 3.9375 C26.92794376 0 26.92794376 0 28 0 C28 9.57 28 19.14 28 29 C26.02 29 24.04 29 22 29 C22 23.72 22 18.44 22 13 C20.948125 13.86625 19.89625 14.7325 18.8125 15.625 C16.875 17.0078125 16.875 17.0078125 15 18 C11.09181542 17.27289589 9.25929581 15.44447185 6 13 C6 18.28 6 23.56 6 29 C4.02 29 2.04 29 0 29 C0 19.43 0 9.86 0 0 Z " fill="#FBB915" transform="translate(360,622)"/>
<path d="M0 0 C9 6 9 6 13 9 C16.92645036 8.06215358 19.65875948 5.89570955 22.75 3.375 C26.91020408 0 26.91020408 0 28 0 C28 9.57 28 19.14 28 29 C26.02 29 24.04 29 22 29 C22 23.72 22 18.44 22 13 C20.948125 13.86625 19.89625 14.7325 18.8125 15.625 C16.875 17.0078125 16.875 17.0078125 15 18 C11.09181542 17.27289589 9.25929581 15.44447185 6 13 C6 18.28 6 23.56 6 29 C4.02 29 2.04 29 0 29 C0 19.43 0 9.86 0 0 Z " fill="#FBB914" transform="translate(207,622)"/>
<path d="M0 0 C1.98 0 3.96 0 6 0 C6.06058594 1.26457031 6.12117188 2.52914062 6.18359375 3.83203125 C6.26800904 5.49219871 6.35265655 7.15235437 6.4375 8.8125 C6.47681641 9.64587891 6.51613281 10.47925781 6.55664062 11.33789062 C6.59853516 12.14033203 6.64042969 12.94277344 6.68359375 13.76953125 C6.72025146 14.50792236 6.75690918 15.24631348 6.79467773 16.00708008 C6.94842141 18.207495 6.94842141 18.207495 8 21 C14.09741064 22.20020761 14.09741064 22.20020761 20 21 C20.88639389 18.34081834 21.17989025 16.51935359 21.31640625 13.76953125 C21.35830078 12.96708984 21.40019531 12.16464844 21.44335938 11.33789062 C21.48267578 10.50451172 21.52199219 9.67113281 21.5625 8.8125 C21.60568359 7.96751953 21.64886719 7.12253906 21.69335938 6.25195312 C21.79931518 4.16815567 21.9001502 2.08409897 22 0 C23.98 0 25.96 0 28 0 C28.08115993 3.06303578 28.14057409 6.12390815 28.1875 9.1875 C28.21263672 10.05181641 28.23777344 10.91613281 28.26367188 11.80664062 C28.33696647 18.18327006 27.33600376 21.52658426 22.875 26.25 C18.97422481 28.6243849 15.54439859 29.20875329 11 29 C6.76472328 27.48169325 3.89776736 25.43439094 1 22 C0.05862745 19.17588235 -0.11725382 17.47081968 -0.09765625 14.55078125 C-0.09443359 13.70322266 -0.09121094 12.85566406 -0.08789062 11.98242188 C-0.07951172 11.10134766 -0.07113281 10.22027344 -0.0625 9.3125 C-0.05798828 8.41982422 -0.05347656 7.52714844 -0.04882812 6.60742188 C-0.03704983 4.40488013 -0.02060164 2.20247401 0 0 Z " fill="#FAB914" transform="translate(395,622)"/>
<path d="M0 0 C1.2065625 0.0309375 1.2065625 0.0309375 2.4375 0.0625 C2.47488281 1.15949219 2.51226562 2.25648438 2.55078125 3.38671875 C2.61646653 4.84117857 2.68291299 6.29560416 2.75 7.75 C2.77255859 8.47123047 2.79511719 9.19246094 2.81835938 9.93554688 C3.04139211 14.37592579 3.53118417 17.48916087 6.4375 21.0625 C9.79342863 22.39910145 9.79342863 22.39910145 13.4375 22.0625 C16.18016292 20.05655237 18.09689421 18.45060375 18.9296875 15.05664062 C19.15219658 12.77693392 19.23272214 10.54027681 19.25 8.25 C19.27513672 7.46173828 19.30027344 6.67347656 19.32617188 5.86132812 C19.38472981 3.92891627 19.41405488 1.99565673 19.4375 0.0625 C21.4175 0.0625 23.3975 0.0625 25.4375 0.0625 C25.51888426 2.93807703 25.57817851 5.81132262 25.625 8.6875 C25.65013672 9.49574219 25.67527344 10.30398438 25.70117188 11.13671875 C25.7777655 17.41739578 24.68550304 21.61614375 20.3125 26.375 C16.36994109 28.68911067 12.99770644 29.38118331 8.4375 29.0625 C4.18937026 27.81088465 1.26086628 26.0983479 -1.5 22.625 C-3.53862214 17.70832308 -3.69857175 13.10479599 -3.6875 7.8125 C-3.69007813 6.56984375 -3.69265625 5.3271875 -3.6953125 4.046875 C-3.51903563 0.08583014 -3.51903563 0.08583014 0 0 Z " fill="#F7B814" transform="translate(312.5625,621.9375)"/>
<path d="M0 0 C4.37558743 3.89805899 6.53552201 9.37096836 9.1875 14.5 C9.74630859 15.55832031 10.30511719 16.61664062 10.88085938 17.70703125 C11.40873047 18.72152344 11.93660156 19.73601563 12.48046875 20.78125 C12.96410889 21.71001953 13.44774902 22.63878906 13.94604492 23.59570312 C15 26 15 26 15 29 C13.02 29 11.04 29 9 29 C7.82823482 26.87767021 6.66245215 24.75242209 5.5 22.625 C5.16613281 22.02171875 4.83226562 21.4184375 4.48828125 20.796875 C2 16.2265625 2 16.2265625 2 14 C1.34 14 0.68 14 0 14 C-0.226875 14.804375 -0.45375 15.60875 -0.6875 16.4375 C-2.33631588 20.91285739 -4.60544412 24.88721318 -7 29 C-9.31 29 -11.62 29 -14 29 C-4.28699135 8.38009868 -4.28699135 8.38009868 0 0 Z " fill="#F8B814" transform="translate(254,622)"/>
<path d="M0 0 C1.98 0 3.96 0 6 0 C6 9.57 6 19.14 6 29 C4.02 29 2.04 29 0 29 C0 19.43 0 9.86 0 0 Z " fill="#FDBA15" transform="translate(497,622)"/>
</svg>
